{"title":"Pichaikkaran 2016 Tamil Movies DVDScr XviD AAC New +Sample ☻rDX☻","uid":13781346,"size":738990189,"categoryP":"video","categoryS":"movies","magnet":"?xt=urn:btih:56c04758a6b2414d010fb932115c552c147d6bbf&amp;dn=Pichaikkaran+2016+Tamil+Movies+DVDScr+XviD+AAC+New+%2BSample+%E2%98%BBrDX%E2%98%BB&amp;tr=udp%3A%2F%2Ftracker.leechers-paradise.org%3A6969&amp;tr=udp%3A%2F%2Fzer0day.ch%3A1337&amp;tr=udp%3A%2F%2Fopen.demonii.com%3A1337&amp;tr=udp%3A%2F%2Ftracker.coppersurfer.tk%3A6969&amp;tr=udp%3A%2F%2Fexodus.desync.com%3A6969","seeders":21,"leechers":8,"uploader":"basicssom","files":2,"time":1457330377,"description":"----------------------------------------------------------------\r\nPichaikkaran 2016 Tamil Movies DVDScr XviD AAC New Source with Sample ~ ☻rDX☻\r\n\r\nSCREEN SHOTS &amp; POSTER:\r\n  \nhttp://mobileshosting.com/2016/3/Pichaikkaran/index.htm  \nhttp://mobileshosting.com/2016/3/Pichaikkaran/1.html  \nhttp://mobileshosting.com/2016/3/Pichaikkaran/2.html  \nhttp://mobileshosting.com/2016/3/Pichaikkaran/3.html  \nhttp://mobileshosting.com/2016/3/Pichaikkaran/4.html  \nhttp://mobileshosting.com/2016/3/Pichaikkaran/5.html  \nhttp://mobileshosting.com/2016/3/Pichaikkaran/6.html  \nhttp://mobileshosting.com/2016/3/Pichaikkaran/7.html  \nhttp://mobileshosting.com/2016/3/Pichaikkaran/8.html  \nhttp://mobileshosting.com/2016/3/Pichaikkaran/9.html  \nhttp://mobileshosting.com/2016/3/Pichaikkaran/10.html\r\n\r\nFormat                                   : Matroska\r\nFormat version                           : Version 4 / Version 2\r\nFile size                                : 698 MiB\r\nDuration                                 : 2h 4mn\r\nOverall bit rate                         : 786 Kbps\r\nMovie name                               : Pichaikkaran 2016 Tamil Movies DVDScr XviD AAC New Source ☻rDX☻1\r\n\r\nVideo\r\nID                                       : 1\r\nFormat                                   : MPEG-4 Visual\r\nFormat profile                           : Advanced   \r\nFormat settings, BVOP                    : Yes\r\nFormat settings, QPel                    : No\r\nFormat settings, GMC                     : No warppoints\r\nFormat settings, Matrix                  : Default (H.263)\r\nCodec ID                                 : V_MS/VFW/FOURCC / XVID\r\nCodec ID/Hint                            : XviD\r\nDuration                                 : 2h 4mn\r\nBit rate                                 : 674 Kbps\r\nWidth                                    : 608 pixels\r\nHeight                                   : 256 pixels\r\nDisplay aspect ratio                     : 2.40:1\r\nFrame rate mode                          : Constant\r\nFrame rate                               : 25.000 fps\r\nColor space                              : YUV\r\nChroma subsampling                       : 4:2:0\r\nBit depth                                : 8 bits\r\nScan type                                : Progressive\r\nCompression mode                         : Lossy\r\nBits/(Pixel*Frame)                       : 0.173\r\nStream size                              : 599 MiB (86%)\r\nTitle                                    : ☻rDX☻\r\nWriting library                          : XviD 67\r\nDefault                                  : Yes\r\nForced                                   : No\r\n\r\nAudio\r\nID                                       : 2\r\nFormat                                   : MPEG Audio\r\nFormat version                           : Version 1\r\nFormat profile                           : Layer 3\r\nMode                                     : Joint stereo\r\nMode extension                           : MS Stereo\r\nCodec ID                                 : A_MPEG/L3\r\nCodec ID/Hint                            : MP3\r\nDuration                                 : 2h 4mn\r\nBit rate mode                            : Constant\r\nBit rate                                 : 96.0 Kbps\r\nChannel(s)                               : 2 channels\r\nSampling rate                            : 48.0 KHz\r\nCompression mode                         : Lossy\r\nStream size                              : 85.3 MiB (12%)\r\nTitle                                    : ☻rDX☻\r\nWriting library                          : LAME3.98r\r\nEncoding settings                        : -m j -V 4 -q 3 -lowpass 15.1 -b 96\r\nDefault                                  : Yes\r\nForced                                   : No\r\n\r\nIMDB                                      \nhttp://www.imdb.com/title/tt5523174/","torrent":{"xt":"urn:btih:56c04758a6b2414d010fb932115c552c147d6bbf","amp;dn":"Pichaikkaran+2016+Tamil+Movies+DVDScr+XviD+AAC+New+%2BSample+%E2%98%BBrDX%E2%98%BB","amp;tr":["udp%3A%2F%2Ftracker.leechers-paradise.org%3A6969","udp%3A%2F%2Fzer0day.ch%3A1337","udp%3A%2F%2Fopen.demonii.com%3A1337","udp%3A%2F%2Ftracker.coppersurfer.tk%3A6969","udp%3A%2F%2Fexodus.desync.com%3A6969"],"infoHash":"56c04758a6b2414d010fb932115c552c147d6bbf","infoHashBuffer":{"type":"Buffer","data":[86,192,71,88,166,178,65,77,1,15,185,50,17,92,85,44,20,125,107,191]},"announce":[],"urlList":[]}}